# xmcd CD database file
#
# Track frame offsets:
#	200
#	46390
#	82747
#	118560
#	142185
#
# Disc length: 2348 seconds
#
# Revision: 0
# Processed by: cddbd v1.5.1PL0 Copyright (c) Steve Scherf et al.
# Submitted via: CDex 1.51
#
DISCID=3b092a05
DTITLE=Bobby Wattson - Advance
DYEAR=1997
DGENRE=Jazz
TTITLE0=But Not For Me
TTITLE1=Karita
TTITLE2=Round Midnight
TTITLE3=You`re Lucky To Me
TTITLE4=E T A
EXTD=YEAR: 1997
EXTT0=
EXTT1=
EXTT2=
EXTT3=
EXTT4=
PLAYORDER=
